<svg xmlns="http://www.w3.org/2000/svg" width="261.333" height="42.165" viewBox="0 0 261.333 42.165">
  <g id="LOGO" transform="translate(-88.152 -147)">
    <g id="logoSarbacane" transform="translate(88.152 147)">
      <path id="Tracé_110" data-name="Tracé 110" d="M21.083,0A21.083,21.083,0,1,0,42.165,21.083,21.1,21.1,0,0,0,21.083,0ZM15.9,19.409H27.441a4.106,4.106,0,0,1,3.514,1.673,5.12,5.12,0,0,1,.669,4.1,7.3,7.3,0,0,1-2.175,4.1,5.492,5.492,0,0,1-4.1,1.673H9.7a3.393,3.393,0,0,1,3.43-3.43H26.1c.5,0,1.841-.251,2.175-2.343s-.837-2.343-1.339-2.343H15.31A4.071,4.071,0,0,1,11.8,21.083a5.343,5.343,0,0,1-.753-4.016,6.955,6.955,0,0,1,2.259-4.1,5.78,5.78,0,0,1,4.016-1.673H32.544a3.393,3.393,0,0,1-3.43,3.43H16.732c-.5,0-1.841.251-2.175,2.343C14.139,19.158,15.394,19.409,15.9,19.409Z" fill="#fff"/>
    </g>
    <text id="Sarbacane_Suite" data-name="Sarbacane Suite" transform="translate(140.485 155.167)" fill="#fff" font-size="18" font-family="Poppins-Light, Poppins" font-weight="300"><tspan x="0" y="20">Sarbacane Suite</tspan></text>
  </g>
</svg>
